# xmcd
#
# Track frame offsets:
#	150
#	15035
#	30783
#	49292
#	67372
#	83406
#	98351
#	115116
#	127358
#	142398
#	159228
#	171902
#	190059
#	206154
#	223693
#	235929
#	248924
#	267642
#	287457
#
# Disc length: 4104
#
# Revision: 3
# Processed by: cddbd v1.5.1PL0 Copyright (c) Steve Scherf et al.
# Submitted via: VisiTrax 2.9.5.180 - For more info visit www.synapsa.com
# Normalized: r2:DSETVAR1
#
DISCID=10100613
DTITLE=Various Artist - CDX 312 February 2003
DYEAR=2003
DGENRE=Country
TTITLE0=Brian McComas - 99% sure (I've never been here before)
TTITLE1=Trick Pon - A boy like you
TTITLE2=Sara Evans - Backseat of a greyhound bus
TTITLE3=Rhett Akins - In your love
TTITLE4=Amy Dalley - Love's got an attitude
TTITLE5=Tanya Tucker - Old weakness (coming on strong)
TTITLE6=Emerson Drive - Only God (could stop me from loving you)
TTITLE7=Bristol Crossing - Ring of fire
TTITLE8=Marty Raybon - Summertime road
TTITLE9=Chad Brock - That was us
TTITLE10=Jeannie Kendall - That's what your love does to me
TTITLE11=Terri Clark - Three Mississippi
TTITLE12=Eric Heatherly - When a heart begins to drift
TTITLE13=Mark Wills - When you think of me
TTITLE14=Hometown News - First, second chance
TTITLE15=Honi Deaton and Dream - j
TTITLE16=Alicen - It's alright to be me
TTITLE17=Monty Lane Allen - One more date
TTITLE18=Renee McCrary - Angel
EXTD=
EXTT0=
EXTT1=
EXTT2=
EXTT3=
EXTT4=
EXTT5=
EXTT6=
EXTT7=
EXTT8=
EXTT9=
EXTT10=
EXTT11=
EXTT12=
EXTT13=
EXTT14=
EXTT15=
EXTT16=
EXTT17=
EXTT18=
PLAYORDER=
